<?xml version="1.0" standalone="no"?>
<!DOCTYPE svg PUBLIC "-//W3C//DTD SVG 20010904//EN"
 "http://www.w3.org/TR/2001/REC-SVG-20010904/DTD/svg10.dtd">
<svg version="1.0" xmlns="http://www.w3.org/2000/svg"
 width="400.000000pt" height="400.000000pt" viewBox="0 0 400.000000 400.000000"
 preserveAspectRatio="xMidYMid meet">
<metadata>
Created by potrace 1.16, written by Peter Selinger 2001-2019
</metadata>
<g transform="translate(0.000000,400.000000) scale(0.100000,-0.100000)"
fill="#000000" stroke="none">
<path d="M526 3678 c-3 -16 -8 -40 -11 -54 -8 -34 -105 -131 -139 -139 -65
-13 -80 -18 -71 -21 6 -1 28 -8 51 -13 83 -22 147 -92 170 -186 l7 -30 10 40
c21 86 96 161 182 182 l40 10 -30 7 c-94 23 -164 87 -186 170 -16 62 -16 63
-23 34z m74 -149 c19 -20 43 -40 54 -46 16 -9 11 -17 -54 -83 -66 -65 -74 -70
-83 -54 -13 24 -75 85 -107 105 l-24 16 43 28 c23 16 57 49 74 74 l30 45 16
-25 c8 -13 31 -40 51 -60z"/>
<path d="M2849 3580 c-63 -11 -121 -43 -177 -96 l-47 -46 -110 35 c-189 62
-288 77 -497 77 -155 0 -201 -4 -298 -24 -318 -67 -577 -200 -798 -411 -265
-253 -431 -563 -488 -914 -22 -137 -15 -421 15 -560 90 -419 330 -780 673
-1011 256 -173 597 -280 893 -280 86 0 267 22 347 42 46 11 47 11 87 -25 51
-46 85 -63 143 -72 91 -14 182 24 231 96 34 50 39 67 46 143 l6 70 73 51 c457
324 721 898 662 1440 -36 329 -157 629 -348 862 -37 47 -37 45 2 138 57 134
19 296 -93 398 -29 26 -72 56 -95 66 -49 23 -162 33 -227 21z m226 -39 c28
-14 73 -49 102 -77 65 -68 93 -137 93 -237 0 -107 -22 -159 -100 -239 -59 -59
-74 -69 -139 -88 -128 -39 -253 -9 -346 85 -69 68 -99 141 -99 240 0 67 4 90
28 142 34 74 102 143 179 179 45 22 63 24 142 22 71 -2 100 -8 140 -27z m-855
-111 c98 -12 251 -51 306 -77 l38 -18 -3 -70 c-1 -40 -8 -73 -14 -77 -7 -4
-85 -8 -174 -8 -138 0 -163 -2 -163 -15 0 -13 26 -15 175 -15 158 0 176 -2
182 -17 78 -233 318 -342 523 -239 42 21 55 24 67 14 56 -46 239 -359 246
-420 l2 -23 -562 -3 c-348 -1 -563 1 -563 7 0 5 5 22 11 38 6 15 28 76 50 135
34 96 37 109 23 123 -19 18 -103 20 -126 3 -9 -7 -37 -71 -63 -143 -25 -71
-53 -140 -61 -152 -8 -12 -14 -30 -14 -40 0 -18 -71 -218 -90 -254 -10 -18
-23 -19 -175 -19 -103 0 -165 -4 -165 -10 0 -6 60 -10 160 -10 121 0 160 -3
160 -12 0 -12 -106 -308 -113 -314 -2 -2 -158 -4 -347 -4 l-344 -1 -128 62
c-70 35 -128 65 -128 68 0 3 134 71 297 151 163 80 302 151 310 158 18 19 18
131 -1 138 -7 3 -118 -47 -245 -110 l-231 -116 -250 0 c-225 0 -251 2 -257 17
-7 19 22 171 42 220 l14 33 550 2 c359 2 551 6 551 13 0 6 -191 12 -542 15
-536 5 -543 5 -540 25 2 11 27 70 57 130 85 174 230 360 368 473 l70 57 350 5
c268 4 351 8 355 18 3 9 -62 12 -300 12 -166 0 -309 4 -317 9 -39 25 287 175
469 217 148 33 378 44 540 24z m1229 -1077 c42 -158 67 -370 55 -480 l-6 -63
-172 0 -171 1 50 25 c28 14 56 33 63 42 13 17 16 89 6 117 -8 20 -761 398
-780 391 -19 -7 -19 -119 -1 -138 8 -7 147 -78 310 -157 163 -80 297 -147 297
-151 0 -3 -129 -69 -287 -146 -157 -76 -297 -147 -310 -157 -19 -16 -23 -27
-23 -78 0 -46 4 -61 16 -66 10 -4 125 49 304 140 l288 147 201 0 201 0 0 -24
c0 -46 -29 -174 -60 -268 -38 -113 -96 -235 -156 -328 l-45 -70 -621 -2 c-486
-2 -622 -6 -626 -15 -3 -10 119 -13 590 -13 334 0 599 -4 607 -9 12 -7 4 -22
-37 -69 -102 -117 -286 -272 -325 -272 -8 0 -21 7 -28 17 -43 51 -192 73 -261
37 -85 -44 -148 -127 -148 -198 0 -17 -4 -37 -9 -44 -27 -43 -409 -67 -581
-38 -132 23 -283 68 -384 115 -102 47 -256 138 -256 152 0 5 186 9 469 9 426
0 516 5 465 24 -9 3 -235 6 -504 6 l-488 0 -56 46 c-82 68 -200 206 -184 216
7 4 181 8 386 8 294 0 373 3 370 13 -4 9 -97 13 -404 17 l-399 5 -37 55 c-107
157 -218 461 -218 596 l0 34 105 0 c58 0 105 4 105 9 0 16 -30 21 -125 21
l-92 0 -7 31 c-10 51 -7 259 4 280 10 18 23 19 243 19 l232 -1 -123 -65 c-135
-73 -148 -88 -137 -159 l6 -41 378 -192 c208 -106 385 -192 394 -192 14 0 17
11 17 63 0 34 -4 67 -8 74 -4 7 -70 43 -147 82 l-140 70 303 0 c185 1 302 -3
302 -9 0 -5 -25 -79 -56 -164 l-56 -155 -96 -3 c-65 -2 -97 -7 -100 -15 -3
-10 19 -13 87 -13 53 0 91 -4 91 -10 0 -5 -18 -58 -40 -117 -23 -59 -39 -117
-38 -128 2 -13 14 -21 36 -26 35 -7 104 4 110 18 2 4 24 64 50 133 l47 125
458 3 c255 1 457 6 457 11 0 5 -7 12 -16 15 -9 3 -211 6 -450 6 -239 0 -434 3
-434 8 1 4 27 77 58 162 l57 155 153 3 c139 2 178 10 136 26 -9 3 -74 6 -145
6 -126 0 -130 1 -124 20 4 11 30 85 59 163 l53 142 57 3 c69 4 75 22 6 22 -27
0 -50 3 -50 6 0 3 21 64 46 135 l47 129 582 0 583 0 21 -77z m-734 -1612 c23
-10 59 -39 82 -64 120 -137 37 -348 -144 -364 -101 -9 -179 33 -226 121 -42
80 -21 202 45 263 63 59 169 78 243 44z"/>
<path d="M1613 2808 c3 -10 71 -13 297 -13 226 0 294 3 298 13 3 9 -61 12
-298 12 -237 0 -301 -3 -297 -12z"/>
</g>
</svg>
