<?xml version="1.0" encoding="UTF-8"?>
<svg width="752pt" height="752pt" version="1.1" viewBox="0 0 752 752" xmlns="http://www.w3.org/2000/svg">
 <path d="m581.54 404.42c-7.1055-17.523-7.1055-36.938 0-53.988l2.3672-5.6836c15.156-35.992-2.3672-77.668-38.359-92.82l-5.2109-2.3672c-17.523-7.1055-31.258-20.836-38.359-38.359l-1.8945-4.7344c-15.625-35.996-56.828-53.047-93.293-38.367l-4.7344 1.8945c-17.523 7.1055-36.938 7.1055-54.461 0l-4.2617-1.8945c-35.523-14.68-77.199 2.8438-92.352 38.836l-1.8945 3.7891c-7.1055 17.523-20.836 31.258-38.359 38.359l-4.2617 1.8945c-35.52 15.152-53.043 56.828-37.887 92.82l1.8945 4.2617c7.1055 17.523 7.1055 36.938 0 53.988l-1.8945 5.2109c-15.156 35.992 1.8945 77.668 38.359 92.348l4.7344 1.8945c17.523 7.1055 31.258 20.836 38.359 38.359l2.3672 5.2109c14.684 36.465 56.359 53.516 92.352 38.832l5.2109-2.3672c17.523-7.1055 36.938-7.1055 54.461 0l4.2617 1.8945c35.992 15.156 77.668-2.3672 92.82-38.359l1.8945-3.7891c7.1055-17.523 20.836-31.258 38.359-38.359l3.7891-1.4219c36.465-15.156 53.516-56.355 38.359-92.82zm-225.43 63.934-92.348-77.668 28.414-33.625 58.723 49.727 103.71-123.13 33.625 28.414z" fill="#fff"/>
</svg>
